# Created by FreeCAD <http://www.freecadweb.org>
v -31.384249 -16.956974 0.000000
v 8.615751 -16.956974 0.000000
v -31.384249 -16.956974 6.500000
v 8.615751 -16.956974 6.500000
v -31.384249 3.043026 0.000000
v -31.384249 3.043026 6.500000
v 8.615751 3.043026 6.500000
v 8.615751 3.043026 0.000000
v -22.294601 -9.233631 0.000000
v -21.888599 -9.593319 0.000000
v -22.602730 -8.787232 0.000000
v -21.408314 -9.845391 0.000000
v -22.795073 -8.280066 0.000000
v -20.881660 -9.975200 0.000000
v -22.860453 -7.741605 0.000000
v -20.339245 -9.975200 0.000000
v -19.812592 -9.845391 0.000000
v -22.602730 -6.695978 0.000000
v -22.294601 -6.249579 0.000000
v -22.795073 -7.203145 0.000000
v -21.888599 -5.889891 0.000000
v -21.408314 -5.637818 0.000000
v -20.881660 -5.508010 0.000000
v -20.339245 -5.508010 0.000000
v -19.812592 -5.637818 0.000000
v -18.618177 -8.787232 0.000000
v -3.934149 -8.978102 0.000000
v -18.926304 -9.233631 0.000000
v -3.528146 -9.337790 0.000000
v -19.332308 -9.593319 0.000000
v -18.425835 -8.280066 0.000000
v -4.242276 -8.531703 0.000000
v -3.047861 -9.589863 0.000000
v -4.434619 -8.024536 0.000000
v -18.360453 -7.741605 0.000000
v -18.425835 -7.203145 0.000000
v -4.500000 -7.486076 0.000000
v -18.618177 -6.695978 0.000000
v -4.434619 -6.947616 0.000000
v -18.926304 -6.249579 0.000000
v -4.242276 -6.440449 0.000000
v -19.332308 -5.889891 0.000000
v -3.934149 -5.994050 0.000000
v -3.528146 -5.634362 0.000000
v -3.047861 -5.382289 0.000000
v -2.521208 -9.719671 0.000000
v -1.978792 -9.719671 0.000000
v -1.452139 -9.589863 0.000000
v -0.971854 -9.337790 0.000000
v -0.565851 -8.978102 0.000000
v -0.257724 -8.531703 0.000000
v -0.065381 -8.024536 0.000000
v 0.000000 -7.486076 0.000000
v -0.065381 -6.947616 0.000000
v -0.257724 -6.440449 0.000000
v -0.565851 -5.994050 0.000000
v -0.971854 -5.634362 0.000000
v -1.452139 -5.382289 0.000000
v -1.978792 -5.252481 0.000000
v -2.521208 -5.252481 0.000000
v -21.888599 -9.593319 6.500000
v -22.294601 -9.233631 6.500000
v -22.602730 -8.787232 6.500000
v -21.408314 -9.845391 6.500000
v -22.795073 -8.280066 6.500000
v -20.881660 -9.975200 6.500000
v -22.860453 -7.741605 6.500000
v -20.339245 -9.975200 6.500000
v -19.812592 -9.845391 6.500000
v -22.602730 -6.695978 6.500000
v -22.294601 -6.249579 6.500000
v -22.795073 -7.203145 6.500000
v -21.888599 -5.889891 6.500000
v -21.408314 -5.637818 6.500000
v -20.881660 -5.508010 6.500000
v -20.339245 -5.508010 6.500000
v -19.812592 -5.637818 6.500000
v -3.934149 -8.978102 6.500000
v -18.618177 -8.787232 6.500000
v -18.926304 -9.233631 6.500000
v -3.528146 -9.337790 6.500000
v -19.332308 -9.593319 6.500000
v -4.242276 -8.531703 6.500000
v -18.425835 -8.280066 6.500000
v -3.047861 -9.589863 6.500000
v -4.434619 -8.024536 6.500000
v -18.360453 -7.741605 6.500000
v -4.500000 -7.486076 6.500000
v -18.425835 -7.203145 6.500000
v -4.434619 -6.947616 6.500000
v -18.618177 -6.695978 6.500000
v -4.242276 -6.440449 6.500000
v -18.926304 -6.249579 6.500000
v -3.934149 -5.994050 6.500000
v -19.332308 -5.889891 6.500000
v -3.528146 -5.634362 6.500000
v -3.047861 -5.382289 6.500000
v -2.521208 -9.719671 6.500000
v -1.978792 -9.719671 6.500000
v -1.452139 -9.589863 6.500000
v -0.971854 -9.337790 6.500000
v -0.565851 -8.978102 6.500000
v -0.257724 -8.531703 6.500000
v -0.065381 -8.024536 6.500000
v 0.000000 -7.486076 6.500000
v -0.065381 -6.947616 6.500000
v -0.257724 -6.440449 6.500000
v -0.565851 -5.994050 6.500000
v -0.971854 -5.634362 6.500000
v -1.452139 -5.382289 6.500000
v -1.978792 -5.252481 6.500000
v -2.521208 -5.252481 6.500000
vn 0.000000 -1.000000 0.000000
vn 0.000000 -1.000000 0.000000
vn -1.000000 0.000000 0.000000
vn -1.000000 0.000000 0.000000
vn 1.000000 0.000000 0.000000
vn 1.000000 0.000000 0.000000
vn 0.000000 -0.000000 -1.000000
vn 0.000000 0.000000 -1.000000
vn 0.000000 -0.000000 -1.000000
vn 0.000000 0.000000 -1.000000
vn 0.000000 -0.000000 -1.000000
vn 0.000000 0.000000 -1.000000
vn 0.000000 -0.000000 -1.000000
vn 0.000000 -0.000000 -1.000000
vn 0.000000 0.000000 -1.000000
vn 0.000000 0.000000 -1.000000
vn 0.000000 0.000000 -1.000000
vn 0.000000 0.000000 -1.000000
vn 0.000000 0.000000 -1.000000
vn 0.000000 0.000000 -1.000000
vn 0.000000 0.000000 -1.000000
vn 0.000000 0.000000 -1.000000
vn 0.000000 0.000000 -1.000000
vn 0.000000 -0.000000 -1.000000
vn 0.000000 -0.000000 -1.000000
vn 0.000000 -0.000000 -1.000000
vn 0.000000 -0.000000 -1.000000
vn 0.000000 0.000000 -1.000000
vn 0.000000 -0.000000 -1.000000
vn 0.000000 -0.000000 -1.000000
vn 0.000000 0.000000 -1.000000
vn 0.000000 -0.000000 -1.000000
vn 0.000000 0.000000 -1.000000
vn 0.000000 0.000000 -1.000000
vn 0.000000 0.000000 -1.000000
vn 0.000000 0.000000 -1.000000
vn 0.000000 0.000000 -1.000000
vn 0.000000 0.000000 -1.000000
vn 0.000000 0.000000 -1.000000
vn 0.000000 0.000000 -1.000000
vn 0.000000 0.000000 -1.000000
vn 0.000000 0.000000 -1.000000
vn 0.000000 0.000000 -1.000000
vn 0.000000 0.000000 -1.000000
vn 0.000000 -0.000000 -1.000000
vn -0.000000 -0.000000 -1.000000
vn -0.000000 -0.000000 -1.000000
vn 0.000000 -0.000000 -1.000000
vn 0.000000 -0.000000 -1.000000
vn 0.000000 -0.000000 -1.000000
vn 0.000000 -0.000000 -1.000000
vn 0.000000 -0.000000 -1.000000
vn 0.000000 0.000000 -1.000000
vn 0.000000 0.000000 -1.000000
vn 0.000000 0.000000 -1.000000
vn 0.000000 0.000000 -1.000000
vn 0.000000 0.000000 -1.000000
vn 0.000000 0.000000 -1.000000
vn 0.000000 0.000000 -1.000000
vn 0.000000 0.000000 -1.000000
vn 0.000000 0.000000 -1.000000
vn 0.000000 0.000000 -1.000000
vn 0.000000 0.000000 -1.000000
vn 0.000000 0.000000 -1.000000
vn 0.000000 0.000000 1.000000
vn 0.000000 0.000000 1.000000
vn 0.000000 0.000000 1.000000
vn 0.000000 0.000000 1.000000
vn 0.000000 0.000000 1.000000
vn 0.000000 0.000000 1.000000
vn 0.000000 0.000000 1.000000
vn 0.000000 0.000000 1.000000
vn 0.000000 0.000000 1.000000
vn 0.000000 0.000000 1.000000
vn 0.000000 0.000000 1.000000
vn 0.000000 0.000000 1.000000
vn 0.000000 0.000000 1.000000
vn 0.000000 0.000000 1.000000
vn 0.000000 0.000000 1.000000
vn 0.000000 0.000000 1.000000
vn 0.000000 0.000000 1.000000
vn 0.000000 0.000000 1.000000
vn 0.000000 0.000000 1.000000
vn 0.000000 0.000000 1.000000
vn 0.000000 0.000000 1.000000
vn 0.000000 0.000000 1.000000
vn 0.000000 0.000000 1.000000
vn 0.000000 0.000000 1.000000
vn 0.000000 0.000000 1.000000
vn 0.000000 0.000000 1.000000
vn 0.000000 0.000000 1.000000
vn 0.000000 0.000000 1.000000
vn 0.000000 0.000000 1.000000
vn 0.000000 0.000000 1.000000
vn 0.000000 0.000000 1.000000
vn 0.000000 0.000000 1.000000
vn 0.000000 0.000000 1.000000
vn 0.000000 0.000000 1.000000
vn 0.000000 0.000000 1.000000
vn 0.000000 0.000000 1.000000
vn 0.000000 0.000000 1.000000
vn 0.000000 0.000000 1.000000
vn 0.000000 0.000000 1.000000
vn 0.000000 0.000000 1.000000
vn 0.000000 0.000000 1.000000
vn 0.000000 0.000000 1.000000
vn 0.000000 0.000000 1.000000
vn 0.000000 0.000000 1.000000
vn 0.000000 0.000000 1.000000
vn 0.000000 0.000000 1.000000
vn 0.000000 0.000000 1.000000
vn 0.000000 0.000000 1.000000
vn 0.000000 0.000000 1.000000
vn 0.000000 0.000000 1.000000
vn 0.000000 0.000000 1.000000
vn 0.000000 0.000000 1.000000
vn 0.000000 0.000000 1.000000
vn 0.000000 0.000000 1.000000
vn 0.000000 0.000000 1.000000
vn 0.000000 0.000000 1.000000
vn 0.000000 0.000000 1.000000
vn 0.000000 0.000000 1.000000
vn 0.000000 1.000000 -0.000000
vn 0.000000 1.000000 0.000000
vn -0.992709 -0.120539 -0.000000
vn -0.992709 -0.120539 0.000000
vn -0.935016 -0.354604 0.000000
vn -0.935016 -0.354604 -0.000000
vn -0.822984 -0.568064 0.000000
vn -0.822984 -0.568064 -0.000000
vn -0.663122 -0.748511 0.000000
vn -0.464724 -0.885456 0.000000
vn -0.663122 -0.748511 -0.000000
vn -0.239316 -0.970942 0.000000
vn -0.464724 -0.885456 0.000000
vn 0.000000 -1.000000 0.000000
vn -0.239316 -0.970942 0.000000
vn -0.000000 -1.000000 0.000000
vn 0.239316 -0.970942 0.000000
vn 0.464722 -0.885456 0.000000
vn 0.239316 -0.970942 0.000000
vn 0.464722 -0.885456 0.000000
vn 0.663124 -0.748509 0.000000
vn 0.663124 -0.748509 0.000000
vn 0.822983 -0.568067 0.000000
vn 0.822983 -0.568067 0.000000
vn 0.935016 -0.354604 0.000000
vn 0.935016 -0.354604 0.000000
vn 0.992709 -0.120535 0.000000
vn 0.992709 -0.120535 0.000000
vn 0.992709 0.120535 0.000000
vn 0.992709 0.120535 0.000000
vn 0.935016 0.354604 0.000000
vn 0.935016 0.354604 0.000000
vn 0.822983 0.568067 0.000000
vn 0.822983 0.568067 0.000000
vn 0.663124 0.748509 -0.000000
vn 0.663124 0.748509 0.000000
vn 0.464722 0.885457 0.000000
vn 0.239316 0.970942 -0.000000
vn 0.464722 0.885457 0.000000
vn 0.239316 0.970942 0.000000
vn 0.000000 1.000000 0.000000
vn -0.239316 0.970942 0.000000
vn -0.000000 1.000000 0.000000
vn -0.239316 0.970942 0.000000
vn -0.464723 0.885456 0.000000
vn -0.464723 0.885456 0.000000
vn -0.663122 0.748511 0.000000
vn -0.663122 0.748511 0.000000
vn -0.822984 0.568064 0.000000
vn -0.822984 0.568064 0.000000
vn -0.935016 0.354604 0.000000
vn -0.992709 0.120539 0.000000
vn -0.935016 0.354604 0.000000
vn -0.992709 0.120539 0.000000
vn -0.992709 -0.120537 -0.000000
vn -0.992709 -0.120537 0.000000
vn -0.935016 -0.354605 0.000000
vn -0.935016 -0.354605 -0.000000
vn -0.822984 -0.568065 0.000000
vn -0.822984 -0.568065 -0.000000
vn -0.663123 -0.748511 0.000000
vn -0.464723 -0.885456 0.000000
vn -0.663123 -0.748511 -0.000000
vn -0.239316 -0.970942 0.000000
vn -0.464723 -0.885456 0.000000
vn 0.000000 -1.000000 0.000000
vn -0.239316 -0.970942 0.000000
vn -0.000000 -1.000000 0.000000
vn 0.239316 -0.970942 0.000000
vn 0.464723 -0.885456 0.000000
vn 0.239316 -0.970942 0.000000
vn 0.464723 -0.885456 0.000000
vn 0.663123 -0.748511 0.000000
vn 0.663123 -0.748511 0.000000
vn 0.822984 -0.568065 0.000000
vn 0.822984 -0.568065 0.000000
vn 0.935016 -0.354604 0.000000
vn 0.935016 -0.354604 0.000000
vn 0.992709 -0.120537 0.000000
vn 0.992709 -0.120537 0.000000
vn 0.992709 0.120537 0.000000
vn 0.992709 0.120537 0.000000
vn 0.935016 0.354604 0.000000
vn 0.935016 0.354604 0.000000
vn 0.822984 0.568065 0.000000
vn 0.822984 0.568065 0.000000
vn 0.663123 0.748511 -0.000000
vn 0.663123 0.748511 0.000000
vn 0.464724 0.885456 0.000000
vn 0.239316 0.970942 -0.000000
vn 0.464724 0.885456 0.000000
vn 0.239316 0.970942 0.000000
vn 0.000000 1.000000 0.000000
vn -0.239316 0.970942 0.000000
vn -0.000000 1.000000 0.000000
vn -0.239316 0.970942 0.000000
vn -0.464724 0.885456 0.000000
vn -0.464724 0.885456 0.000000
vn -0.663123 0.748511 0.000000
vn -0.663123 0.748511 0.000000
vn -0.822984 0.568065 0.000000
vn -0.822984 0.568065 0.000000
vn -0.935016 0.354605 0.000000
vn -0.992709 0.120537 0.000000
vn -0.935016 0.354605 0.000000
vn -0.992709 0.120537 0.000000
f 1//1 2//1 3//1
f 3//2 2//2 4//2
f 5//3 3//3 6//3
f 5//4 1//4 3//4
f 2//5 7//5 4//5
f 2//6 8//6 7//6
f 9//7 10//7 1//7
f 1//8 11//8 9//8
f 10//9 12//9 1//9
f 1//10 13//10 11//10
f 12//11 14//11 1//11
f 1//12 15//12 13//12
f 14//13 16//13 1//13
f 16//14 17//14 1//14
f 18//15 5//15 19//15
f 20//16 5//16 18//16
f 15//17 5//17 20//17
f 1//18 5//18 15//18
f 5//19 21//19 19//19
f 5//20 22//20 21//20
f 5//21 23//21 22//21
f 5//22 24//22 23//22
f 5//23 25//23 24//23
f 26//24 27//24 28//24
f 28//25 29//25 30//25
f 27//26 29//26 28//26
f 31//27 32//27 26//27
f 26//28 32//28 27//28
f 29//29 33//29 30//29
f 30//30 33//30 17//30
f 31//31 34//31 32//31
f 35//32 34//32 31//32
f 36//33 37//33 35//33
f 35//34 37//34 34//34
f 38//35 39//35 36//35
f 36//36 39//36 37//36
f 40//37 41//37 38//37
f 38//38 41//38 39//38
f 42//39 43//39 40//39
f 40//40 43//40 41//40
f 25//41 44//41 42//41
f 42//42 44//42 43//42
f 5//43 45//43 25//43
f 25//44 45//44 44//44
f 33//45 2//45 17//45
f 46//46 2//46 33//46
f 47//47 2//47 46//47
f 48//48 2//48 47//48
f 49//49 2//49 48//49
f 50//50 2//50 49//50
f 51//51 2//51 50//51
f 17//52 2//52 1//52
f 51//53 52//53 2//53
f 52//54 53//54 2//54
f 54//55 8//55 53//55
f 55//56 8//56 54//56
f 56//57 8//57 55//57
f 57//58 8//58 56//58
f 58//59 8//59 57//59
f 59//60 8//60 58//60
f 60//61 8//61 59//61
f 45//62 8//62 60//62
f 53//63 8//63 2//63
f 5//64 8//64 45//64
f 61//65 62//65 3//65
f 63//66 3//66 62//66
f 64//67 61//67 3//67
f 65//68 3//68 63//68
f 66//69 64//69 3//69
f 67//70 3//70 65//70
f 68//71 66//71 3//71
f 69//72 68//72 3//72
f 6//73 70//73 71//73
f 6//74 72//74 70//74
f 6//75 67//75 72//75
f 6//76 3//76 67//76
f 73//77 6//77 71//77
f 74//78 6//78 73//78
f 75//79 6//79 74//79
f 76//80 6//80 75//80
f 77//81 6//81 76//81
f 78//82 79//82 80//82
f 81//83 80//83 82//83
f 81//84 78//84 80//84
f 83//85 84//85 79//85
f 83//86 79//86 78//86
f 85//87 81//87 82//87
f 85//88 82//88 69//88
f 86//89 84//89 83//89
f 86//90 87//90 84//90
f 88//91 89//91 87//91
f 88//92 87//92 86//92
f 90//93 91//93 89//93
f 90//94 89//94 88//94
f 92//95 93//95 91//95
f 92//96 91//96 90//96
f 94//97 95//97 93//97
f 94//98 93//98 92//98
f 96//99 77//99 95//99
f 96//100 95//100 94//100
f 97//101 6//101 77//101
f 97//102 77//102 96//102
f 4//103 85//103 69//103
f 4//104 98//104 85//104
f 4//105 99//105 98//105
f 4//106 100//106 99//106
f 4//107 101//107 100//107
f 4//108 102//108 101//108
f 4//109 103//109 102//109
f 4//110 69//110 3//110
f 104//111 103//111 4//111
f 105//112 104//112 4//112
f 7//113 106//113 105//113
f 7//114 107//114 106//114
f 7//115 108//115 107//115
f 7//116 109//116 108//116
f 7//117 110//117 109//117
f 7//118 111//118 110//118
f 7//119 112//119 111//119
f 7//120 97//120 112//120
f 7//121 105//121 4//121
f 7//122 6//122 97//122
f 8//123 5//123 7//123
f 7//124 5//124 6//124
f 87//125 89//125 35//125
f 35//126 89//126 36//126
f 36//127 91//127 38//127
f 89//128 91//128 36//128
f 38//129 93//129 40//129
f 91//130 93//130 38//130
f 40//131 95//131 42//131
f 42//132 95//132 25//132
f 93//133 95//133 40//133
f 25//134 77//134 24//134
f 95//135 77//135 25//135
f 24//136 76//136 23//136
f 77//137 76//137 24//137
f 76//138 75//138 23//138
f 23//139 74//139 22//139
f 22//140 74//140 21//140
f 75//141 74//141 23//141
f 74//142 73//142 21//142
f 21//143 71//143 19//143
f 73//144 71//144 21//144
f 71//145 70//145 19//145
f 19//146 70//146 18//146
f 70//147 72//147 18//147
f 18//148 72//148 20//148
f 72//149 67//149 20//149
f 20//150 67//150 15//150
f 15//151 65//151 13//151
f 67//152 65//152 15//152
f 65//153 63//153 13//153
f 13//154 63//154 11//154
f 11//155 62//155 9//155
f 63//156 62//156 11//156
f 9//157 62//157 10//157
f 62//158 61//158 10//158
f 10//159 64//159 12//159
f 12//160 64//160 14//160
f 61//161 64//161 10//161
f 64//162 66//162 14//162
f 14//163 68//163 16//163
f 16//164 68//164 17//164
f 66//165 68//165 14//165
f 68//166 69//166 17//166
f 17//167 82//167 30//167
f 69//168 82//168 17//168
f 30//169 80//169 28//169
f 82//170 80//170 30//170
f 28//171 79//171 26//171
f 80//172 79//172 28//172
f 26//173 84//173 31//173
f 31//174 84//174 35//174
f 79//175 84//175 26//175
f 84//176 87//176 35//176
f 105//177 106//177 53//177
f 53//178 106//178 54//178
f 54//179 107//179 55//179
f 106//180 107//180 54//180
f 55//181 108//181 56//181
f 107//182 108//182 55//182
f 56//183 109//183 57//183
f 57//184 109//184 58//184
f 108//185 109//185 56//185
f 58//186 110//186 59//186
f 109//187 110//187 58//187
f 59//188 111//188 60//188
f 110//189 111//189 59//189
f 111//190 112//190 60//190
f 60//191 97//191 45//191
f 45//192 97//192 44//192
f 112//193 97//193 60//193
f 97//194 96//194 44//194
f 44//195 94//195 43//195
f 96//196 94//196 44//196
f 94//197 92//197 43//197
f 43//198 92//198 41//198
f 92//199 90//199 41//199
f 41//200 90//200 39//200
f 90//201 88//201 39//201
f 39//202 88//202 37//202
f 37//203 86//203 34//203
f 88//204 86//204 37//204
f 86//205 83//205 34//205
f 34//206 83//206 32//206
f 32//207 78//207 27//207
f 83//208 78//208 32//208
f 27//209 78//209 29//209
f 78//210 81//210 29//210
f 29//211 85//211 33//211
f 33//212 85//212 46//212
f 81//213 85//213 29//213
f 85//214 98//214 46//214
f 46//215 99//215 47//215
f 47//216 99//216 48//216
f 98//217 99//217 46//217
f 99//218 100//218 48//218
f 48//219 101//219 49//219
f 100//220 101//220 48//220
f 49//221 102//221 50//221
f 101//222 102//222 49//222
f 50//223 103//223 51//223
f 102//224 103//224 50//224
f 51//225 104//225 52//225
f 52//226 104//226 53//226
f 103//227 104//227 51//227
f 104//228 105//228 53//228
